<svg xmlns="http://www.w3.org/2000/svg" version="1.1" xmlns:xlink="http://www.w3.org/1999/xlink" xmlns:svgjs="http://svgjs.dev/svgjs" width="1920" height="1080" preserveAspectRatio="none" viewBox="0 0 1920 1080"><g mask="url(&quot;#SvgjsMask1123&quot;)" fill="none"><rect width="1920" height="1080" x="0" y="0" fill="rgba(255, 183, 0, 1)"></rect><path d="M1394.012,674.064C1474.766,669.821,1549.579,635.271,1593.707,567.508C1642.639,492.368,1666.59,398.263,1625.528,318.549C1581.373,232.832,1490.432,179.359,1394.012,179.844C1298.383,180.325,1214.695,238.263,1166.499,320.86C1117.883,404.177,1102.1,509.495,1154.337,590.591C1203.438,666.818,1303.465,678.821,1394.012,674.064" fill="rgba(255, 214, 106, 0.57)" class="triangle-float2"></path><path d="M503.6896064901601 471.1176666522664L265.91974818171235 650.2901063729647 445.09218790241067 888.0599646814125 682.8620462108584 708.8875249607141z" fill="rgba(255, 214, 106, 0.57)" class="triangle-float2"></path><path d="M1762.7619546768565 681.4190520113801L1612.282604434193 550.6093485302297 1481.4729009530424 701.0886987728932 1631.952251195706 831.8984022540437z" fill="rgba(255, 214, 106, 0.57)" class="triangle-float2"></path><path d="M517.2082248136431 404.71488296185447L402.66961253817954 214.09062061489925 212.04535019122432 328.6292328903629 326.5839624666879 519.2534952373181z" fill="rgba(255, 214, 106, 0.57)" class="triangle-float3"></path><path d="M455.3219126176358-51.84262393093409L273.3763566673547-29.50251873534396 295.7164618629448 152.44303721493716 477.66201781322593 130.10293201934704z" fill="rgba(255, 214, 106, 0.57)" class="triangle-float2"></path><path d="M635.403,318.201C707.71,315.119,781.573,297.538,820.894,236.779C863.548,170.87,869.457,85.208,830.18,17.232C790.924,-50.707,713.857,-85.573,635.403,-84.243C559.313,-82.953,492.585,-40.562,451.74,23.649C407.189,93.686,376.421,183.418,420.34,253.853C462.774,321.907,555.276,321.616,635.403,318.201" fill="rgba(255, 214, 106, 0.57)" class="triangle-float1"></path><path d="M1048.374,684.899C1106.343,682.962,1143.792,629.046,1169.907,577.257C1192.955,531.55,1196.948,480.242,1174.862,434.063C1148.93,379.844,1108.453,324.784,1048.374,323.153C986.448,321.472,937.963,371.884,909.408,426.859C883.218,477.282,884.969,535.852,911.91,585.878C940.472,638.913,988.171,686.911,1048.374,684.899" fill="rgba(255, 214, 106, 0.57)" class="triangle-float3"></path><path d="M1474.68452031989 131.66863473703296L1676.6927958709073 110.43670941790526 1655.4608705517794-91.57156613311196 1453.4525950007624-70.33964081398426z" fill="rgba(255, 214, 106, 0.57)" class="triangle-float3"></path><path d="M232.68,759.937C318.907,761.111,380.679,686.402,422.71,611.104C463.42,538.173,489.468,449.538,445.629,378.444C403.261,309.736,313.39,301.57,232.68,302.932C155.116,304.241,71.642,318.849,31.826,385.427C-8.788,453.339,14.007,536.315,51.406,606.049C91.557,680.914,147.736,758.78,232.68,759.937" fill="rgba(255, 214, 106, 0.57)" class="triangle-float1"></path><path d="M1185.87,334.666C1255.84,335.833,1316.011,285.472,1346.409,222.439C1373.313,166.65,1353.313,104.595,1322.82,50.683C1291.694,-4.348,1248.932,-56.865,1185.87,-61.395C1115.533,-66.447,1043.692,-33.736,1010.002,28.214C977.473,88.029,1000.454,158.181,1034.344,217.235C1068.434,276.637,1117.391,333.524,1185.87,334.666" fill="rgba(255, 214, 106, 0.57)" class="triangle-float1"></path></g><defs><mask id="SvgjsMask1123"><rect width="1920" height="1080" fill="#ffffff"></rect></mask><style>
                @keyframes float1 {
                    0%{transform: translate(0, 0)}
                    50%{transform: translate(-10px, 0)}
                    100%{transform: translate(0, 0)}
                }

                .triangle-float1 {
                    animation: float1 5s infinite;
                }

                @keyframes float2 {
                    0%{transform: translate(0, 0)}
                    50%{transform: translate(-5px, -5px)}
                    100%{transform: translate(0, 0)}
                }

                .triangle-float2 {
                    animation: float2 4s infinite;
                }

                @keyframes float3 {
                    0%{transform: translate(0, 0)}
                    50%{transform: translate(0, -10px)}
                    100%{transform: translate(0, 0)}
                }

                .triangle-float3 {
                    animation: float3 6s infinite;
                }
            </style></defs></svg>