<svg xmlns="http://www.w3.org/2000/svg" version="1.1" xmlns:xlink="http://www.w3.org/1999/xlink" xmlns:svgjs="http://svgjs.dev/svgjs" width="1920" height="2160" preserveAspectRatio="none" viewBox="0 0 1920 2160"><g mask="url(&quot;#SvgjsMask1258&quot;)" fill="none"><rect width="1920" height="2160" x="0" y="0" fill="rgba(255, 183, 0, 1)"></rect><path d="M1333.5909316786403 663.6555641679606L1574.6851512478322 896.4775456768008 1807.5071327566723 655.3833261076089 1566.4129131874804 422.56134459876876z" fill="rgba(255, 214, 106, 0.57)" class="triangle-float2"></path><path d="M460.457,1251.723C623.677,1246.618,775.255,1160.972,852.835,1017.277C926.903,880.086,898.188,718.023,822.049,581.971C743.746,442.052,620.689,321.983,460.457,316.137C291.144,309.96,137.41,408.621,50.084,553.808C-40.175,703.872,-65.628,892.271,23.133,1043.226C110.866,1192.433,287.453,1257.134,460.457,1251.723" fill="rgba(255, 214, 106, 0.57)" class="triangle-float1"></path><path d="M610.63,1398.013C676.457,1396.066,742.492,1371.93,775.058,1314.69C807.321,1257.982,793.53,1189.49,761.652,1132.565C728.883,1074.051,677.65,1018.616,610.63,1021.073C546.22,1023.434,510.783,1087.697,477.64,1142.976C443.011,1200.734,397.308,1265.229,428.446,1324.942C460.871,1387.124,540.533,1400.086,610.63,1398.013" fill="rgba(255, 214, 106, 0.57)" class="triangle-float1"></path><path d="M1203.0959465414928 1060.7223103945848L862.7909338490172 1000.7173549865647 802.785978440997 1341.0223676790404 1143.0909911334727 1401.0273230870605z" fill="rgba(255, 214, 106, 0.57)" class="triangle-float1"></path><path d="M1046.3191218635743 84.86712527119211L687.7857585447864 116.23473005740739 719.1533633310016 474.7680933761953 1077.6867266497895 443.40048858998z" fill="rgba(255, 214, 106, 0.57)" class="triangle-float3"></path><path d="M1657.471,1159.917C1732.812,1159.075,1789.517,1100.874,1828.339,1036.299C1868.732,969.11,1897.91,889.242,1862.135,819.485C1823.752,744.643,1741.567,704.722,1657.471,703.125C1570.331,701.47,1479.517,734.342,1438.886,811.448C1400.182,884.898,1435.737,969.863,1479.854,1040.195C1520.518,1105.023,1580.95,1160.772,1657.471,1159.917" fill="rgba(255, 214, 106, 0.57)" class="triangle-float1"></path><path d="M1757.518,1930.935C1895.258,1932.374,2040.753,1898.354,2112.682,1780.877C2187.242,1659.102,2170.094,1502.369,2093.834,1381.651C2022.524,1268.768,1891.031,1220.117,1757.518,1218.657C1620.926,1217.163,1479.968,1257.915,1408.218,1374.154C1333.25,1495.605,1339.127,1652.688,1414.976,1773.59C1486.545,1887.671,1622.853,1929.529,1757.518,1930.935" fill="rgba(255, 214, 106, 0.57)" class="triangle-float2"></path><path d="M1599.973,28.738C1647.432,27.779,1696.111,12.534,1719.846,-28.575C1743.581,-69.685,1732.12,-119.286,1709.544,-161.044C1685.532,-205.459,1650.397,-247.716,1599.973,-250.301C1545.793,-253.078,1495.81,-220.564,1469.051,-173.371C1442.647,-126.805,1442.301,-68.482,1471.405,-23.554C1498.364,18.064,1550.396,29.74,1599.973,28.738" fill="rgba(255, 214, 106, 0.57)" class="triangle-float2"></path><path d="M96.289,1838.703C208.283,1839.6,331.382,1820.658,388.063,1724.062C445.219,1626.657,409.021,1505.28,347.515,1410.562C291.947,1324.989,198.311,1276.194,96.289,1274.739C-8.577,1273.244,-111.242,1314.806,-167.659,1403.216C-228.555,1498.643,-246.174,1622.643,-187.498,1719.451C-130.495,1813.5,-13.682,1837.822,96.289,1838.703" fill="rgba(255, 214, 106, 0.57)" class="triangle-float1"></path><path d="M957.605,1652.542C1016.3,1652.764,1068.713,1620.687,1100.386,1571.271C1135.123,1517.076,1156.064,1448.586,1124.172,1392.669C1092.072,1336.387,1022.329,1317.949,957.605,1320.928C898.377,1323.654,844.812,1355.254,815.632,1406.868C786.913,1457.666,787.482,1519.675,816.68,1570.199C845.857,1620.687,899.293,1652.322,957.605,1652.542" fill="rgba(255, 214, 106, 0.57)" class="triangle-float3"></path></g><defs><mask id="SvgjsMask1258"><rect width="1920" height="2160" fill="#ffffff"></rect></mask><style>
                @keyframes float1 {
                    0%{transform: translate(0, 0)}
                    50%{transform: translate(-10px, 0)}
                    100%{transform: translate(0, 0)}
                }

                .triangle-float1 {
                    animation: float1 5s infinite;
                }

                @keyframes float2 {
                    0%{transform: translate(0, 0)}
                    50%{transform: translate(-5px, -5px)}
                    100%{transform: translate(0, 0)}
                }

                .triangle-float2 {
                    animation: float2 4s infinite;
                }

                @keyframes float3 {
                    0%{transform: translate(0, 0)}
                    50%{transform: translate(0, -10px)}
                    100%{transform: translate(0, 0)}
                }

                .triangle-float3 {
                    animation: float3 6s infinite;
                }
            </style></defs></svg>